<?xml version="1.0" encoding="UTF-8"?>
<!DOCTYPE svg PUBLIC "-//W3C//DTD SVG 1.1//EN" "http://www.w3.org/Graphics/SVG/1.1/DTD/svg11.dtd">
<!-- Creator: CorelDRAW (Evaluation Version) -->
<svg xmlns="http://www.w3.org/2000/svg" xml:space="preserve" width="250px" height="250px" version="1.1" shape-rendering="geometricPrecision" text-rendering="geometricPrecision" image-rendering="optimizeQuality" fill-rule="evenodd" clip-rule="evenodd"
viewBox="0 0 13.93 13.93"
 xmlns:xlink="http://www.w3.org/1999/xlink"
 xmlns:xodm="http://www.corel.com/coreldraw/odm/2003">
 <defs>
   <clipPath id="id0">
    <path d="M2.23 0l9.47 0c1.23,0 2.23,1 2.23,2.23l0 9.47c0,1.23 -1,2.23 -2.23,2.23l-9.47 0c-1.23,0 -2.23,-1 -2.23,-2.23l0 -9.47c0,-1.23 1,-2.23 2.23,-2.23z"/>
   </clipPath>
 </defs>
 <g id="Layer_x0020_1">
  <metadata id="CorelCorpID_0Corel-Layer"/>
  <g>
  </g>
  <g clip-path="url(#id0)">
   <g id="_105553185058624">
    <path fill="#CBD5E1" fill-rule="nonzero" d="M2.09 2.23l11.14 0c0.35,0 0.7,0.25 0.7,0.5l0 8.47c0,0.25 -0.35,0.5 -0.7,0.5l-11.14 0 0 -9.47z"/>
    <path fill="white" fill-rule="nonzero" d="M2.09 1.57l10.45 0c0.35,0 0.69,0.28 0.69,0.57l0 9.65c0,0.29 -0.34,0.57 -0.69,0.57l-10.45 0 0 -10.79z"/>
    <rect fill="#CF1F25" width="12.54" height="13.93" rx="2.23" ry="2.23"/>
    <line fill="none" fill-rule="nonzero" stroke="#9C161B" stroke-width="0.7" stroke-miterlimit="22.9256" x1="2.09" y1="0" x2="2.09" y2= "13.93" />
    <g>
     <path fill="white" fill-rule="nonzero" d="M4.78 2.2l4.88 0c0.42,0 0.76,0.34 0.76,0.76l0 2.14c0,0.42 -0.34,0.76 -0.76,0.76l-4.88 0c-0.42,0 -0.76,-0.34 -0.76,-0.76l0 -2.14c0,-0.42 0.34,-0.76 0.76,-0.76z"/>
     <polygon fill="black" fill-rule="nonzero" points="5.76,4.88 5.76,3.3 5.9,3.44 5.4,3.44 5.4,3.18 6.07,3.18 6.07,4.88 "/>
     <path id="_1" fill="black" fill-rule="nonzero" d="M6.39 4.88l0 -0.21 0.68 -0.64c0.05,-0.06 0.1,-0.1 0.13,-0.14 0.02,-0.04 0.04,-0.08 0.05,-0.12 0.01,-0.03 0.01,-0.06 0.01,-0.1 0,-0.07 -0.02,-0.13 -0.08,-0.18 -0.05,-0.04 -0.13,-0.06 -0.23,-0.06 -0.09,0 -0.16,0.01 -0.23,0.04 -0.07,0.03 -0.12,0.08 -0.17,0.14l-0.23 -0.17c0.07,-0.09 0.16,-0.16 0.28,-0.21 0.11,-0.05 0.23,-0.08 0.37,-0.08 0.13,0 0.23,0.02 0.33,0.06 0.09,0.04 0.16,0.1 0.21,0.17 0.05,0.08 0.07,0.16 0.07,0.26 0,0.06 0,0.11 -0.02,0.17 -0.01,0.05 -0.04,0.11 -0.08,0.17 -0.04,0.06 -0.1,0.13 -0.18,0.2l-0.58 0.55 -0.07 -0.11 1 0 0 0.26 -1.26 0z"/>
     <path id="_2" fill="black" fill-rule="nonzero" d="M8.37 4.91c-0.12,0 -0.24,-0.02 -0.35,-0.06 -0.12,-0.03 -0.22,-0.08 -0.29,-0.14l0.13 -0.25c0.06,0.06 0.14,0.09 0.23,0.13 0.09,0.03 0.18,0.04 0.27,0.04 0.12,0 0.21,-0.02 0.27,-0.07 0.06,-0.04 0.09,-0.11 0.09,-0.19 0,-0.07 -0.03,-0.13 -0.08,-0.18 -0.06,-0.05 -0.16,-0.07 -0.29,-0.07l-0.15 0 0 -0.22 0.48 -0.58 0.05 0.12 -0.92 0 0 -0.26 1.16 0 0 0.21 -0.49 0.58 -0.16 -0.1 0.09 0c0.21,0 0.37,0.05 0.48,0.14 0.1,0.1 0.15,0.22 0.15,0.36 0,0.1 -0.02,0.19 -0.07,0.27 -0.05,0.08 -0.12,0.14 -0.22,0.19 -0.1,0.05 -0.23,0.08 -0.38,0.08z"/>
     <path fill="white" fill-rule="nonzero" fill-opacity="0.349020" d="M4.48 6.55l0.91 0c0.25,0 0.46,0.22 0.46,0.5l0 1.36c0,0.28 -0.21,0.5 -0.46,0.5l-0.91 0c-0.26,0 -0.46,-0.22 -0.46,-0.5l0 -1.36c0,-0.28 0.2,-0.5 0.46,-0.5z"/>
     <path fill="white" fill-rule="nonzero" fill-opacity="0.349020" d="M6.76 6.55l0.92 0c0.25,0 0.45,0.22 0.45,0.5l0 1.36c0,0.28 -0.2,0.5 -0.45,0.5l-0.92 0c-0.25,0 -0.45,-0.22 -0.45,-0.5l0 -1.36c0,-0.28 0.2,-0.5 0.45,-0.5z"/>
     <path fill="white" fill-rule="nonzero" d="M9.05 6.55l0.91 0c0.25,0 0.46,0.2 0.46,0.45l0 4.27c0,0.25 -0.21,0.46 -0.46,0.46l-0.91 0c-0.25,0 -0.46,-0.21 -0.46,-0.46l0 -4.27c0,-0.25 0.21,-0.45 0.46,-0.45z"/>
     <g>
      <path fill="black" fill-rule="nonzero" d="M9.5 8.22l0 1.83 0 -1.83zm-0.6 0.92l1.21 0 -1.21 0zm0 0l0 0 0 0z"/>
      <path id="_1_0" fill="none" fill-rule="nonzero" stroke="#CF1F25" stroke-width="0.44" stroke-linecap="round" stroke-miterlimit="22.9256" d="M9.5 8.22l0 1.83m-0.6 -0.91l1.21 0m-1.21 0l0 0 0 0z"/>
     </g>
     <path fill="white" fill-rule="nonzero" fill-opacity="0.349020" d="M4.48 9.36l0.91 0c0.25,0 0.46,0.23 0.46,0.51l0 1.35c0,0.28 -0.21,0.51 -0.46,0.51l-0.91 0c-0.26,0 -0.46,-0.23 -0.46,-0.51l0 -1.35c0,-0.28 0.2,-0.51 0.46,-0.51z"/>
     <path fill="white" fill-rule="nonzero" fill-opacity="0.349020" d="M6.76 9.36l0.92 0c0.25,0 0.45,0.23 0.45,0.51l0 1.35c0,0.28 -0.2,0.51 -0.45,0.51l-0.92 0c-0.25,0 -0.45,-0.23 -0.45,-0.51l0 -1.35c0,-0.28 0.2,-0.51 0.45,-0.51z"/>
    </g>
   </g>
  </g>
  <path fill="none" d="M2.23 0l9.47 0c1.23,0 2.23,1 2.23,2.23l0 9.47c0,1.23 -1,2.23 -2.23,2.23l-9.47 0c-1.23,0 -2.23,-1 -2.23,-2.23l0 -9.47c0,-1.23 1,-2.23 2.23,-2.23z"/>
 </g>
</svg>
